<?xml version="1.0" standalone="no"?>
<!DOCTYPE svg PUBLIC "-//W3C//DTD SVG 1.1//EN" 
  "http://www.w3.org/Graphics/SVG/1.1/DTD/svg11.dtd">
<svg xmlns="http://www.w3.org/2000/svg" version="1.1" viewBox="0 0 220 135"><defs>
    <style type="text/css"><![CDATA[
      .month {
        font-family: arial;
        fill: #FFFFFF;}
      .legend {
        font-family: arial;
        fill: #FFFFFF;}
      .legend-zero {
        font-family: arial;
        font-size: 10px;
        fill: #FFFFFF;}
    ]]></style>
  </defs>
  
    <rect x="0" y="0" width="220" height="135" fill="#000000" fill-opacity="1.0" stroke="none"/><g transform="translate(16, 20)">
      
        <g transform="translate(0, 0)"><a href="https://pixe.la/v1/users/sambarwithegg/graphs/fastest/20230108/retina.svg" target="_blank"><rect data-tippy-content="0 Km on 2023-01-08" class="each-day" rx="2" ry="2" width="10" height="10" x="13" y="0" fill="#eeeeee" data-count="0" data-date="2023-01-08" data-unit="Km" data-retina="false" data-retinaday="20230108" data-index="95" /></a>
      <a href="https://pixe.la/v1/users/sambarwithegg/graphs/fastest/20230109/retina.svg" target="_blank"><rect data-tippy-content="0 Km on 2023-01-09" class="each-day" rx="2" ry="2" width="10" height="10" x="13" y="12" fill="#eeeeee" data-count="0" data-date="2023-01-09" data-unit="Km" data-retina="false" data-retinaday="20230109" data-index="94" /></a>
      <a href="https://pixe.la/v1/users/sambarwithegg/graphs/fastest/20230110/retina.svg" target="_blank"><rect data-tippy-content="0 Km on 2023-01-10" class="each-day" rx="2" ry="2" width="10" height="10" x="13" y="24" fill="#eeeeee" data-count="0" data-date="2023-01-10" data-unit="Km" data-retina="false" data-retinaday="20230110" data-index="93" /></a>
      <a href="https://pixe.la/v1/users/sambarwithegg/graphs/fastest/20230111/retina.svg" target="_blank"><rect data-tippy-content="0 Km on 2023-01-11" class="each-day" rx="2" ry="2" width="10" height="10" x="13" y="36" fill="#eeeeee" data-count="0" data-date="2023-01-11" data-unit="Km" data-retina="false" data-retinaday="20230111" data-index="92" /></a>
      <a href="https://pixe.la/v1/users/sambarwithegg/graphs/fastest/20230112/retina.svg" target="_blank"><rect data-tippy-content="0 Km on 2023-01-12" class="each-day" rx="2" ry="2" width="10" height="10" x="13" y="48" fill="#eeeeee" data-count="0" data-date="2023-01-12" data-unit="Km" data-retina="false" data-retinaday="20230112" data-index="91" /></a>
      <a href="https://pixe.la/v1/users/sambarwithegg/graphs/fastest/20230113/retina.svg" target="_blank"><rect data-tippy-content="0 Km on 2023-01-13" class="each-day" rx="2" ry="2" width="10" height="10" x="13" y="60" fill="#eeeeee" data-count="0" data-date="2023-01-13" data-unit="Km" data-retina="false" data-retinaday="20230113" data-index="90" /></a>
      <a href="https://pixe.la/v1/users/sambarwithegg/graphs/fastest/20230114/retina.svg" target="_blank"><rect data-tippy-content="0 Km on 2023-01-14" class="each-day" rx="2" ry="2" width="10" height="10" x="13" y="72" fill="#eeeeee" data-count="0" data-date="2023-01-14" data-unit="Km" data-retina="false" data-retinaday="20230114" data-index="89" /></a>
        <rect class="weekly-streak" rx="2" ry="2" width="10" height="5" x="13" y="85" fill="#eeeeee" data-week="20230108 - 20230114" data-avg-count="0.00" data-sum-count="0.00" data-unit="Km" data-index="0" /></g>
        
      
      
        <g transform="translate(13, 0)"><a href="https://pixe.la/v1/users/sambarwithegg/graphs/fastest/20230115/retina.svg" target="_blank"><rect data-tippy-content="0 Km on 2023-01-15" class="each-day" rx="2" ry="2" width="10" height="10" x="12" y="0" fill="#eeeeee" data-count="0" data-date="2023-01-15" data-unit="Km" data-retina="false" data-retinaday="20230115" data-index="88" /></a>
      <a href="https://pixe.la/v1/users/sambarwithegg/graphs/fastest/20230116/retina.svg" target="_blank"><rect data-tippy-content="0 Km on 2023-01-16" class="each-day" rx="2" ry="2" width="10" height="10" x="12" y="12" fill="#eeeeee" data-count="0" data-date="2023-01-16" data-unit="Km" data-retina="false" data-retinaday="20230116" data-index="87" /></a>
      <a href="https://pixe.la/v1/users/sambarwithegg/graphs/fastest/20230117/retina.svg" target="_blank"><rect data-tippy-content="0 Km on 2023-01-17" class="each-day" rx="2" ry="2" width="10" height="10" x="12" y="24" fill="#eeeeee" data-count="0" data-date="2023-01-17" data-unit="Km" data-retina="false" data-retinaday="20230117" data-index="86" /></a>
      <a href="https://pixe.la/v1/users/sambarwithegg/graphs/fastest/20230118/retina.svg" target="_blank"><rect data-tippy-content="0 Km on 2023-01-18" class="each-day" rx="2" ry="2" width="10" height="10" x="12" y="36" fill="#eeeeee" data-count="0" data-date="2023-01-18" data-unit="Km" data-retina="false" data-retinaday="20230118" data-index="85" /></a>
      <a href="https://pixe.la/v1/users/sambarwithegg/graphs/fastest/20230119/retina.svg" target="_blank"><rect data-tippy-content="0 Km on 2023-01-19" class="each-day" rx="2" ry="2" width="10" height="10" x="12" y="48" fill="#eeeeee" data-count="0" data-date="2023-01-19" data-unit="Km" data-retina="false" data-retinaday="20230119" data-index="84" /></a>
      <a href="https://pixe.la/v1/users/sambarwithegg/graphs/fastest/20230120/retina.svg" target="_blank"><rect data-tippy-content="0 Km on 2023-01-20" class="each-day" rx="2" ry="2" width="10" height="10" x="12" y="60" fill="#eeeeee" data-count="0" data-date="2023-01-20" data-unit="Km" data-retina="false" data-retinaday="20230120" data-index="83" /></a>
      <a href="https://pixe.la/v1/users/sambarwithegg/graphs/fastest/20230121/retina.svg" target="_blank"><rect data-tippy-content="0 Km on 2023-01-21" class="each-day" rx="2" ry="2" width="10" height="10" x="12" y="72" fill="#eeeeee" data-count="0" data-date="2023-01-21" data-unit="Km" data-retina="false" data-retinaday="20230121" data-index="82" /></a>
        <rect class="weekly-streak" rx="2" ry="2" width="10" height="5" x="12" y="85" fill="#eeeeee" data-week="20230115 - 20230121" data-avg-count="0.00" data-sum-count="0.00" data-unit="Km" data-index="1" /></g>
        
      
      
        <g transform="translate(26, 0)"><a href="https://pixe.la/v1/users/sambarwithegg/graphs/fastest/20230122/retina.svg" target="_blank"><rect data-tippy-content="0 Km on 2023-01-22" class="each-day" rx="2" ry="2" width="10" height="10" x="11" y="0" fill="#eeeeee" data-count="0" data-date="2023-01-22" data-unit="Km" data-retina="false" data-retinaday="20230122" data-index="81" /></a>
      <a href="https://pixe.la/v1/users/sambarwithegg/graphs/fastest/20230123/retina.svg" target="_blank"><rect data-tippy-content="0 Km on 2023-01-23" class="each-day" rx="2" ry="2" width="10" height="10" x="11" y="12" fill="#eeeeee" data-count="0" data-date="2023-01-23" data-unit="Km" data-retina="false" data-retinaday="20230123" data-index="80" /></a>
      <a href="https://pixe.la/v1/users/sambarwithegg/graphs/fastest/20230124/retina.svg" target="_blank"><rect data-tippy-content="0 Km on 2023-01-24" class="each-day" rx="2" ry="2" width="10" height="10" x="11" y="24" fill="#eeeeee" data-count="0" data-date="2023-01-24" data-unit="Km" data-retina="false" data-retinaday="20230124" data-index="79" /></a>
      <a href="https://pixe.la/v1/users/sambarwithegg/graphs/fastest/20230125/retina.svg" target="_blank"><rect data-tippy-content="0 Km on 2023-01-25" class="each-day" rx="2" ry="2" width="10" height="10" x="11" y="36" fill="#eeeeee" data-count="0" data-date="2023-01-25" data-unit="Km" data-retina="false" data-retinaday="20230125" data-index="78" /></a>
      <a href="https://pixe.la/v1/users/sambarwithegg/graphs/fastest/20230126/retina.svg" target="_blank"><rect data-tippy-content="0 Km on 2023-01-26" class="each-day" rx="2" ry="2" width="10" height="10" x="11" y="48" fill="#eeeeee" data-count="0" data-date="2023-01-26" data-unit="Km" data-retina="false" data-retinaday="20230126" data-index="77" /></a>
      <a href="https://pixe.la/v1/users/sambarwithegg/graphs/fastest/20230127/retina.svg" target="_blank"><rect data-tippy-content="0 Km on 2023-01-27" class="each-day" rx="2" ry="2" width="10" height="10" x="11" y="60" fill="#eeeeee" data-count="0" data-date="2023-01-27" data-unit="Km" data-retina="false" data-retinaday="20230127" data-index="76" /></a>
      <a href="https://pixe.la/v1/users/sambarwithegg/graphs/fastest/20230128/retina.svg" target="_blank"><rect data-tippy-content="0 Km on 2023-01-28" class="each-day" rx="2" ry="2" width="10" height="10" x="11" y="72" fill="#eeeeee" data-count="0" data-date="2023-01-28" data-unit="Km" data-retina="false" data-retinaday="20230128" data-index="75" /></a>
        <rect class="weekly-streak" rx="2" ry="2" width="10" height="5" x="11" y="85" fill="#eeeeee" data-week="20230122 - 20230128" data-avg-count="0.00" data-sum-count="0.00" data-unit="Km" data-index="2" /></g>
        
      
      
        <g transform="translate(39, 0)"><a href="https://pixe.la/v1/users/sambarwithegg/graphs/fastest/20230129/retina.svg" target="_blank"><rect data-tippy-content="0 Km on 2023-01-29" class="each-day" rx="2" ry="2" width="10" height="10" x="10" y="0" fill="#eeeeee" data-count="0" data-date="2023-01-29" data-unit="Km" data-retina="false" data-retinaday="20230129" data-index="74" /></a>
      <a href="https://pixe.la/v1/users/sambarwithegg/graphs/fastest/20230130/retina.svg" target="_blank"><rect data-tippy-content="0 Km on 2023-01-30" class="each-day" rx="2" ry="2" width="10" height="10" x="10" y="12" fill="#eeeeee" data-count="0" data-date="2023-01-30" data-unit="Km" data-retina="false" data-retinaday="20230130" data-index="73" /></a>
      <a href="https://pixe.la/v1/users/sambarwithegg/graphs/fastest/20230131/retina.svg" target="_blank"><rect data-tippy-content="0 Km on 2023-01-31" class="each-day" rx="2" ry="2" width="10" height="10" x="10" y="24" fill="#eeeeee" data-count="0" data-date="2023-01-31" data-unit="Km" data-retina="false" data-retinaday="20230131" data-index="72" /></a>
      <a href="https://pixe.la/v1/users/sambarwithegg/graphs/fastest/20230201/retina.svg" target="_blank"><rect data-tippy-content="0 Km on 2023-02-01" class="each-day" rx="2" ry="2" width="10" height="10" x="10" y="36" fill="#eeeeee" data-count="0" data-date="2023-02-01" data-unit="Km" data-retina="false" data-retinaday="20230201" data-index="71" /></a>
      <a href="https://pixe.la/v1/users/sambarwithegg/graphs/fastest/20230202/retina.svg" target="_blank"><rect data-tippy-content="0 Km on 2023-02-02" class="each-day" rx="2" ry="2" width="10" height="10" x="10" y="48" fill="#eeeeee" data-count="0" data-date="2023-02-02" data-unit="Km" data-retina="false" data-retinaday="20230202" data-index="70" /></a>
      <a href="https://pixe.la/v1/users/sambarwithegg/graphs/fastest/20230203/retina.svg" target="_blank"><rect data-tippy-content="0 Km on 2023-02-03" class="each-day" rx="2" ry="2" width="10" height="10" x="10" y="60" fill="#eeeeee" data-count="0" data-date="2023-02-03" data-unit="Km" data-retina="false" data-retinaday="20230203" data-index="69" /></a>
      <a href="https://pixe.la/v1/users/sambarwithegg/graphs/fastest/20230204/retina.svg" target="_blank"><rect data-tippy-content="0 Km on 2023-02-04" class="each-day" rx="2" ry="2" width="10" height="10" x="10" y="72" fill="#eeeeee" data-count="0" data-date="2023-02-04" data-unit="Km" data-retina="false" data-retinaday="20230204" data-index="68" /></a>
        <rect class="weekly-streak" rx="2" ry="2" width="10" height="5" x="10" y="85" fill="#eeeeee" data-week="20230129 - 20230204" data-avg-count="0.00" data-sum-count="0.00" data-unit="Km" data-index="3" /></g>
        
      
      
        <g transform="translate(52, 0)"><a href="https://pixe.la/v1/users/sambarwithegg/graphs/fastest/20230205/retina.svg" target="_blank"><rect data-tippy-content="0 Km on 2023-02-05" class="each-day" rx="2" ry="2" width="10" height="10" x="9" y="0" fill="#eeeeee" data-count="0" data-date="2023-02-05" data-unit="Km" data-retina="false" data-retinaday="20230205" data-index="67" /></a>
      <a href="https://pixe.la/v1/users/sambarwithegg/graphs/fastest/20230206/retina.svg" target="_blank"><rect data-tippy-content="0 Km on 2023-02-06" class="each-day" rx="2" ry="2" width="10" height="10" x="9" y="12" fill="#eeeeee" data-count="0" data-date="2023-02-06" data-unit="Km" data-retina="false" data-retinaday="20230206" data-index="66" /></a>
      <a href="https://pixe.la/v1/users/sambarwithegg/graphs/fastest/20230207/retina.svg" target="_blank"><rect data-tippy-content="0 Km on 2023-02-07" class="each-day" rx="2" ry="2" width="10" height="10" x="9" y="24" fill="#eeeeee" data-count="0" data-date="2023-02-07" data-unit="Km" data-retina="false" data-retinaday="20230207" data-index="65" /></a>
      <a href="https://pixe.la/v1/users/sambarwithegg/graphs/fastest/20230208/retina.svg" target="_blank"><rect data-tippy-content="0 Km on 2023-02-08" class="each-day" rx="2" ry="2" width="10" height="10" x="9" y="36" fill="#eeeeee" data-count="0" data-date="2023-02-08" data-unit="Km" data-retina="false" data-retinaday="20230208" data-index="64" /></a>
      <a href="https://pixe.la/v1/users/sambarwithegg/graphs/fastest/20230209/retina.svg" target="_blank"><rect data-tippy-content="0 Km on 2023-02-09" class="each-day" rx="2" ry="2" width="10" height="10" x="9" y="48" fill="#eeeeee" data-count="0" data-date="2023-02-09" data-unit="Km" data-retina="false" data-retinaday="20230209" data-index="63" /></a>
      <a href="https://pixe.la/v1/users/sambarwithegg/graphs/fastest/20230210/retina.svg" target="_blank"><rect data-tippy-content="0 Km on 2023-02-10" class="each-day" rx="2" ry="2" width="10" height="10" x="9" y="60" fill="#eeeeee" data-count="0" data-date="2023-02-10" data-unit="Km" data-retina="false" data-retinaday="20230210" data-index="62" /></a>
      <a href="https://pixe.la/v1/users/sambarwithegg/graphs/fastest/20230211/retina.svg" target="_blank"><rect data-tippy-content="0 Km on 2023-02-11" class="each-day" rx="2" ry="2" width="10" height="10" x="9" y="72" fill="#eeeeee" data-count="0" data-date="2023-02-11" data-unit="Km" data-retina="false" data-retinaday="20230211" data-index="61" /></a>
        <rect class="weekly-streak" rx="2" ry="2" width="10" height="5" x="9" y="85" fill="#eeeeee" data-week="20230205 - 20230211" data-avg-count="0.00" data-sum-count="0.00" data-unit="Km" data-index="4" /></g>
        
      
      
        <g transform="translate(65, 0)"><a href="https://pixe.la/v1/users/sambarwithegg/graphs/fastest/20230212/retina.svg" target="_blank"><rect data-tippy-content="0 Km on 2023-02-12" class="each-day" rx="2" ry="2" width="10" height="10" x="8" y="0" fill="#eeeeee" data-count="0" data-date="2023-02-12" data-unit="Km" data-retina="false" data-retinaday="20230212" data-index="60" /></a>
      <a href="https://pixe.la/v1/users/sambarwithegg/graphs/fastest/20230213/retina.svg" target="_blank"><rect data-tippy-content="0 Km on 2023-02-13" class="each-day" rx="2" ry="2" width="10" height="10" x="8" y="12" fill="#eeeeee" data-count="0" data-date="2023-02-13" data-unit="Km" data-retina="false" data-retinaday="20230213" data-index="59" /></a>
      <a href="https://pixe.la/v1/users/sambarwithegg/graphs/fastest/20230214/retina.svg" target="_blank"><rect data-tippy-content="0 Km on 2023-02-14" class="each-day" rx="2" ry="2" width="10" height="10" x="8" y="24" fill="#eeeeee" data-count="0" data-date="2023-02-14" data-unit="Km" data-retina="false" data-retinaday="20230214" data-index="58" /></a>
      <a href="https://pixe.la/v1/users/sambarwithegg/graphs/fastest/20230215/retina.svg" target="_blank"><rect data-tippy-content="0 Km on 2023-02-15" class="each-day" rx="2" ry="2" width="10" height="10" x="8" y="36" fill="#eeeeee" data-count="0" data-date="2023-02-15" data-unit="Km" data-retina="false" data-retinaday="20230215" data-index="57" /></a>
      <a href="https://pixe.la/v1/users/sambarwithegg/graphs/fastest/20230216/retina.svg" target="_blank"><rect data-tippy-content="0 Km on 2023-02-16" class="each-day" rx="2" ry="2" width="10" height="10" x="8" y="48" fill="#eeeeee" data-count="0" data-date="2023-02-16" data-unit="Km" data-retina="false" data-retinaday="20230216" data-index="56" /></a>
      <a href="https://pixe.la/v1/users/sambarwithegg/graphs/fastest/20230217/retina.svg" target="_blank"><rect data-tippy-content="0 Km on 2023-02-17" class="each-day" rx="2" ry="2" width="10" height="10" x="8" y="60" fill="#eeeeee" data-count="0" data-date="2023-02-17" data-unit="Km" data-retina="false" data-retinaday="20230217" data-index="55" /></a>
      <a href="https://pixe.la/v1/users/sambarwithegg/graphs/fastest/20230218/retina.svg" target="_blank"><rect data-tippy-content="0 Km on 2023-02-18" class="each-day" rx="2" ry="2" width="10" height="10" x="8" y="72" fill="#eeeeee" data-count="0" data-date="2023-02-18" data-unit="Km" data-retina="false" data-retinaday="20230218" data-index="54" /></a>
        <rect class="weekly-streak" rx="2" ry="2" width="10" height="5" x="8" y="85" fill="#eeeeee" data-week="20230212 - 20230218" data-avg-count="0.00" data-sum-count="0.00" data-unit="Km" data-index="5" /></g>
        
      
      
        <g transform="translate(78, 0)"><a href="https://pixe.la/v1/users/sambarwithegg/graphs/fastest/20230219/retina.svg" target="_blank"><rect data-tippy-content="0 Km on 2023-02-19" class="each-day" rx="2" ry="2" width="10" height="10" x="7" y="0" fill="#eeeeee" data-count="0" data-date="2023-02-19" data-unit="Km" data-retina="false" data-retinaday="20230219" data-index="53" /></a>
      <a href="https://pixe.la/v1/users/sambarwithegg/graphs/fastest/20230220/retina.svg" target="_blank"><rect data-tippy-content="0 Km on 2023-02-20" class="each-day" rx="2" ry="2" width="10" height="10" x="7" y="12" fill="#eeeeee" data-count="0" data-date="2023-02-20" data-unit="Km" data-retina="false" data-retinaday="20230220" data-index="52" /></a>
      <a href="https://pixe.la/v1/users/sambarwithegg/graphs/fastest/20230221/retina.svg" target="_blank"><rect data-tippy-content="0 Km on 2023-02-21" class="each-day" rx="2" ry="2" width="10" height="10" x="7" y="24" fill="#eeeeee" data-count="0" data-date="2023-02-21" data-unit="Km" data-retina="false" data-retinaday="20230221" data-index="51" /></a>
      <a href="https://pixe.la/v1/users/sambarwithegg/graphs/fastest/20230222/retina.svg" target="_blank"><rect data-tippy-content="0 Km on 2023-02-22" class="each-day" rx="2" ry="2" width="10" height="10" x="7" y="36" fill="#eeeeee" data-count="0" data-date="2023-02-22" data-unit="Km" data-retina="false" data-retinaday="20230222" data-index="50" /></a>
      <a href="https://pixe.la/v1/users/sambarwithegg/graphs/fastest/20230223/retina.svg" target="_blank"><rect data-tippy-content="0 Km on 2023-02-23" class="each-day" rx="2" ry="2" width="10" height="10" x="7" y="48" fill="#eeeeee" data-count="0" data-date="2023-02-23" data-unit="Km" data-retina="false" data-retinaday="20230223" data-index="49" /></a>
      <a href="https://pixe.la/v1/users/sambarwithegg/graphs/fastest/20230224/retina.svg" target="_blank"><rect data-tippy-content="0 Km on 2023-02-24" class="each-day" rx="2" ry="2" width="10" height="10" x="7" y="60" fill="#eeeeee" data-count="0" data-date="2023-02-24" data-unit="Km" data-retina="false" data-retinaday="20230224" data-index="48" /></a>
      <a href="https://pixe.la/v1/users/sambarwithegg/graphs/fastest/20230225/retina.svg" target="_blank"><rect data-tippy-content="0 Km on 2023-02-25" class="each-day" rx="2" ry="2" width="10" height="10" x="7" y="72" fill="#eeeeee" data-count="0" data-date="2023-02-25" data-unit="Km" data-retina="false" data-retinaday="20230225" data-index="47" /></a>
        <rect class="weekly-streak" rx="2" ry="2" width="10" height="5" x="7" y="85" fill="#eeeeee" data-week="20230219 - 20230225" data-avg-count="0.00" data-sum-count="0.00" data-unit="Km" data-index="6" /></g>
        
      
      
        <g transform="translate(91, 0)"><a href="https://pixe.la/v1/users/sambarwithegg/graphs/fastest/20230226/retina.svg" target="_blank"><rect data-tippy-content="0 Km on 2023-02-26" class="each-day" rx="2" ry="2" width="10" height="10" x="6" y="0" fill="#eeeeee" data-count="0" data-date="2023-02-26" data-unit="Km" data-retina="false" data-retinaday="20230226" data-index="46" /></a>
      <a href="https://pixe.la/v1/users/sambarwithegg/graphs/fastest/20230227/retina.svg" target="_blank"><rect data-tippy-content="0 Km on 2023-02-27" class="each-day" rx="2" ry="2" width="10" height="10" x="6" y="12" fill="#eeeeee" data-count="0" data-date="2023-02-27" data-unit="Km" data-retina="false" data-retinaday="20230227" data-index="45" /></a>
      <a href="https://pixe.la/v1/users/sambarwithegg/graphs/fastest/20230228/retina.svg" target="_blank"><rect data-tippy-content="0 Km on 2023-02-28" class="each-day" rx="2" ry="2" width="10" height="10" x="6" y="24" fill="#eeeeee" data-count="0" data-date="2023-02-28" data-unit="Km" data-retina="false" data-retinaday="20230228" data-index="44" /></a>
      <a href="https://pixe.la/v1/users/sambarwithegg/graphs/fastest/20230301/retina.svg" target="_blank"><rect data-tippy-content="0 Km on 2023-03-01" class="each-day" rx="2" ry="2" width="10" height="10" x="6" y="36" fill="#eeeeee" data-count="0" data-date="2023-03-01" data-unit="Km" data-retina="false" data-retinaday="20230301" data-index="43" /></a>
      <a href="https://pixe.la/v1/users/sambarwithegg/graphs/fastest/20230302/retina.svg" target="_blank"><rect data-tippy-content="0 Km on 2023-03-02" class="each-day" rx="2" ry="2" width="10" height="10" x="6" y="48" fill="#eeeeee" data-count="0" data-date="2023-03-02" data-unit="Km" data-retina="false" data-retinaday="20230302" data-index="42" /></a>
      <a href="https://pixe.la/v1/users/sambarwithegg/graphs/fastest/20230303/retina.svg" target="_blank"><rect data-tippy-content="0 Km on 2023-03-03" class="each-day" rx="2" ry="2" width="10" height="10" x="6" y="60" fill="#eeeeee" data-count="0" data-date="2023-03-03" data-unit="Km" data-retina="false" data-retinaday="20230303" data-index="41" /></a>
      <a href="https://pixe.la/v1/users/sambarwithegg/graphs/fastest/20230304/retina.svg" target="_blank"><rect data-tippy-content="0 Km on 2023-03-04" class="each-day" rx="2" ry="2" width="10" height="10" x="6" y="72" fill="#eeeeee" data-count="0" data-date="2023-03-04" data-unit="Km" data-retina="false" data-retinaday="20230304" data-index="40" /></a>
        <rect class="weekly-streak" rx="2" ry="2" width="10" height="5" x="6" y="85" fill="#eeeeee" data-week="20230226 - 20230304" data-avg-count="0.00" data-sum-count="0.00" data-unit="Km" data-index="7" /></g>
        
      
      
        <g transform="translate(104, 0)"><a href="https://pixe.la/v1/users/sambarwithegg/graphs/fastest/20230305/retina.svg" target="_blank"><rect data-tippy-content="0 Km on 2023-03-05" class="each-day" rx="2" ry="2" width="10" height="10" x="5" y="0" fill="#eeeeee" data-count="0" data-date="2023-03-05" data-unit="Km" data-retina="false" data-retinaday="20230305" data-index="39" /></a>
      <a href="https://pixe.la/v1/users/sambarwithegg/graphs/fastest/20230306/retina.svg" target="_blank"><rect data-tippy-content="0 Km on 2023-03-06" class="each-day" rx="2" ry="2" width="10" height="10" x="5" y="12" fill="#eeeeee" data-count="0" data-date="2023-03-06" data-unit="Km" data-retina="false" data-retinaday="20230306" data-index="38" /></a>
      <a href="https://pixe.la/v1/users/sambarwithegg/graphs/fastest/20230307/retina.svg" target="_blank"><rect data-tippy-content="0 Km on 2023-03-07" class="each-day" rx="2" ry="2" width="10" height="10" x="5" y="24" fill="#eeeeee" data-count="0" data-date="2023-03-07" data-unit="Km" data-retina="false" data-retinaday="20230307" data-index="37" /></a>
      <a href="https://pixe.la/v1/users/sambarwithegg/graphs/fastest/20230308/retina.svg" target="_blank"><rect data-tippy-content="0 Km on 2023-03-08" class="each-day" rx="2" ry="2" width="10" height="10" x="5" y="36" fill="#eeeeee" data-count="0" data-date="2023-03-08" data-unit="Km" data-retina="false" data-retinaday="20230308" data-index="36" /></a>
      <a href="https://pixe.la/v1/users/sambarwithegg/graphs/fastest/20230309/retina.svg" target="_blank"><rect data-tippy-content="0 Km on 2023-03-09" class="each-day" rx="2" ry="2" width="10" height="10" x="5" y="48" fill="#eeeeee" data-count="0" data-date="2023-03-09" data-unit="Km" data-retina="false" data-retinaday="20230309" data-index="35" /></a>
      <a href="https://pixe.la/v1/users/sambarwithegg/graphs/fastest/20230310/retina.svg" target="_blank"><rect data-tippy-content="0 Km on 2023-03-10" class="each-day" rx="2" ry="2" width="10" height="10" x="5" y="60" fill="#eeeeee" data-count="0" data-date="2023-03-10" data-unit="Km" data-retina="false" data-retinaday="20230310" data-index="34" /></a>
      <a href="https://pixe.la/v1/users/sambarwithegg/graphs/fastest/20230311/retina.svg" target="_blank"><rect data-tippy-content="0 Km on 2023-03-11" class="each-day" rx="2" ry="2" width="10" height="10" x="5" y="72" fill="#eeeeee" data-count="0" data-date="2023-03-11" data-unit="Km" data-retina="false" data-retinaday="20230311" data-index="33" /></a>
        <rect class="weekly-streak" rx="2" ry="2" width="10" height="5" x="5" y="85" fill="#eeeeee" data-week="20230305 - 20230311" data-avg-count="0.00" data-sum-count="0.00" data-unit="Km" data-index="8" /></g>
        
      
      
        <g transform="translate(117, 0)"><a href="https://pixe.la/v1/users/sambarwithegg/graphs/fastest/20230312/retina.svg" target="_blank"><rect data-tippy-content="0 Km on 2023-03-12" class="each-day" rx="2" ry="2" width="10" height="10" x="4" y="0" fill="#eeeeee" data-count="0" data-date="2023-03-12" data-unit="Km" data-retina="false" data-retinaday="20230312" data-index="32" /></a>
      <a href="https://pixe.la/v1/users/sambarwithegg/graphs/fastest/20230313/retina.svg" target="_blank"><rect data-tippy-content="0 Km on 2023-03-13" class="each-day" rx="2" ry="2" width="10" height="10" x="4" y="12" fill="#eeeeee" data-count="0" data-date="2023-03-13" data-unit="Km" data-retina="false" data-retinaday="20230313" data-index="31" /></a>
      <a href="https://pixe.la/v1/users/sambarwithegg/graphs/fastest/20230314/retina.svg" target="_blank"><rect data-tippy-content="0 Km on 2023-03-14" class="each-day" rx="2" ry="2" width="10" height="10" x="4" y="24" fill="#eeeeee" data-count="0" data-date="2023-03-14" data-unit="Km" data-retina="false" data-retinaday="20230314" data-index="30" /></a>
      <a href="https://pixe.la/v1/users/sambarwithegg/graphs/fastest/20230315/retina.svg" target="_blank"><rect data-tippy-content="0 Km on 2023-03-15" class="each-day" rx="2" ry="2" width="10" height="10" x="4" y="36" fill="#eeeeee" data-count="0" data-date="2023-03-15" data-unit="Km" data-retina="false" data-retinaday="20230315" data-index="29" /></a>
      <a href="https://pixe.la/v1/users/sambarwithegg/graphs/fastest/20230316/retina.svg" target="_blank"><rect data-tippy-content="0 Km on 2023-03-16" class="each-day" rx="2" ry="2" width="10" height="10" x="4" y="48" fill="#eeeeee" data-count="0" data-date="2023-03-16" data-unit="Km" data-retina="false" data-retinaday="20230316" data-index="28" /></a>
      <a href="https://pixe.la/v1/users/sambarwithegg/graphs/fastest/20230317/retina.svg" target="_blank"><rect data-tippy-content="0 Km on 2023-03-17" class="each-day" rx="2" ry="2" width="10" height="10" x="4" y="60" fill="#eeeeee" data-count="0" data-date="2023-03-17" data-unit="Km" data-retina="false" data-retinaday="20230317" data-index="27" /></a>
      <a href="https://pixe.la/v1/users/sambarwithegg/graphs/fastest/20230318/retina.svg" target="_blank"><rect data-tippy-content="0 Km on 2023-03-18" class="each-day" rx="2" ry="2" width="10" height="10" x="4" y="72" fill="#eeeeee" data-count="0" data-date="2023-03-18" data-unit="Km" data-retina="false" data-retinaday="20230318" data-index="26" /></a>
        <rect class="weekly-streak" rx="2" ry="2" width="10" height="5" x="4" y="85" fill="#eeeeee" data-week="20230312 - 20230318" data-avg-count="0.00" data-sum-count="0.00" data-unit="Km" data-index="9" /></g>
        
      
      
        <g transform="translate(130, 0)"><a href="https://pixe.la/v1/users/sambarwithegg/graphs/fastest/20230319/retina.svg" target="_blank"><rect data-tippy-content="0 Km on 2023-03-19" class="each-day" rx="2" ry="2" width="10" height="10" x="3" y="0" fill="#eeeeee" data-count="0" data-date="2023-03-19" data-unit="Km" data-retina="false" data-retinaday="20230319" data-index="25" /></a>
      <a href="https://pixe.la/v1/users/sambarwithegg/graphs/fastest/20230320/retina.svg" target="_blank"><rect data-tippy-content="0 Km on 2023-03-20" class="each-day" rx="2" ry="2" width="10" height="10" x="3" y="12" fill="#eeeeee" data-count="0" data-date="2023-03-20" data-unit="Km" data-retina="false" data-retinaday="20230320" data-index="24" /></a>
      <a href="https://pixe.la/v1/users/sambarwithegg/graphs/fastest/20230321/retina.svg" target="_blank"><rect data-tippy-content="0 Km on 2023-03-21" class="each-day" rx="2" ry="2" width="10" height="10" x="3" y="24" fill="#eeeeee" data-count="0" data-date="2023-03-21" data-unit="Km" data-retina="false" data-retinaday="20230321" data-index="23" /></a>
      <a href="https://pixe.la/v1/users/sambarwithegg/graphs/fastest/20230322/retina.svg" target="_blank"><rect data-tippy-content="0 Km on 2023-03-22" class="each-day" rx="2" ry="2" width="10" height="10" x="3" y="36" fill="#eeeeee" data-count="0" data-date="2023-03-22" data-unit="Km" data-retina="false" data-retinaday="20230322" data-index="22" /></a>
      <a href="https://pixe.la/v1/users/sambarwithegg/graphs/fastest/20230323/retina.svg" target="_blank"><rect data-tippy-content="0 Km on 2023-03-23" class="each-day" rx="2" ry="2" width="10" height="10" x="3" y="48" fill="#eeeeee" data-count="0" data-date="2023-03-23" data-unit="Km" data-retina="false" data-retinaday="20230323" data-index="21" /></a>
      <a href="https://pixe.la/v1/users/sambarwithegg/graphs/fastest/20230324/retina.svg" target="_blank"><rect data-tippy-content="0 Km on 2023-03-24" class="each-day" rx="2" ry="2" width="10" height="10" x="3" y="60" fill="#eeeeee" data-count="0" data-date="2023-03-24" data-unit="Km" data-retina="false" data-retinaday="20230324" data-index="20" /></a>
      <a href="https://pixe.la/v1/users/sambarwithegg/graphs/fastest/20230325/retina.svg" target="_blank"><rect data-tippy-content="0 Km on 2023-03-25" class="each-day" rx="2" ry="2" width="10" height="10" x="3" y="72" fill="#eeeeee" data-count="0" data-date="2023-03-25" data-unit="Km" data-retina="false" data-retinaday="20230325" data-index="19" /></a>
        <rect class="weekly-streak" rx="2" ry="2" width="10" height="5" x="3" y="85" fill="#eeeeee" data-week="20230319 - 20230325" data-avg-count="0.00" data-sum-count="0.00" data-unit="Km" data-index="10" /></g>
        
      
      
        <g transform="translate(143, 0)"><a href="https://pixe.la/v1/users/sambarwithegg/graphs/fastest/20230326/retina.svg" target="_blank"><rect data-tippy-content="0 Km on 2023-03-26" class="each-day" rx="2" ry="2" width="10" height="10" x="2" y="0" fill="#eeeeee" data-count="0" data-date="2023-03-26" data-unit="Km" data-retina="false" data-retinaday="20230326" data-index="18" /></a>
      <a href="https://pixe.la/v1/users/sambarwithegg/graphs/fastest/20230327/retina.svg" target="_blank"><rect data-tippy-content="0 Km on 2023-03-27" class="each-day" rx="2" ry="2" width="10" height="10" x="2" y="12" fill="#eeeeee" data-count="0" data-date="2023-03-27" data-unit="Km" data-retina="false" data-retinaday="20230327" data-index="17" /></a>
      <a href="https://pixe.la/v1/users/sambarwithegg/graphs/fastest/20230328/retina.svg" target="_blank"><rect data-tippy-content="0 Km on 2023-03-28" class="each-day" rx="2" ry="2" width="10" height="10" x="2" y="24" fill="#eeeeee" data-count="0" data-date="2023-03-28" data-unit="Km" data-retina="false" data-retinaday="20230328" data-index="16" /></a>
      <a href="https://pixe.la/v1/users/sambarwithegg/graphs/fastest/20230329/retina.svg" target="_blank"><rect data-tippy-content="0 Km on 2023-03-29" class="each-day" rx="2" ry="2" width="10" height="10" x="2" y="36" fill="#eeeeee" data-count="0" data-date="2023-03-29" data-unit="Km" data-retina="false" data-retinaday="20230329" data-index="15" /></a>
      <a href="https://pixe.la/v1/users/sambarwithegg/graphs/fastest/20230330/retina.svg" target="_blank"><rect data-tippy-content="0 Km on 2023-03-30" class="each-day" rx="2" ry="2" width="10" height="10" x="2" y="48" fill="#eeeeee" data-count="0" data-date="2023-03-30" data-unit="Km" data-retina="false" data-retinaday="20230330" data-index="14" /></a>
      <a href="https://pixe.la/v1/users/sambarwithegg/graphs/fastest/20230331/retina.svg" target="_blank"><rect data-tippy-content="0 Km on 2023-03-31" class="each-day" rx="2" ry="2" width="10" height="10" x="2" y="60" fill="#eeeeee" data-count="0" data-date="2023-03-31" data-unit="Km" data-retina="false" data-retinaday="20230331" data-index="13" /></a>
      <a href="https://pixe.la/v1/users/sambarwithegg/graphs/fastest/20230401/retina.svg" target="_blank"><rect data-tippy-content="0 Km on 2023-04-01" class="each-day" rx="2" ry="2" width="10" height="10" x="2" y="72" fill="#eeeeee" data-count="0" data-date="2023-04-01" data-unit="Km" data-retina="false" data-retinaday="20230401" data-index="12" /></a>
        <rect class="weekly-streak" rx="2" ry="2" width="10" height="5" x="2" y="85" fill="#eeeeee" data-week="20230326 - 20230401" data-avg-count="0.00" data-sum-count="0.00" data-unit="Km" data-index="11" /></g>
        
      
      
        <g transform="translate(156, 0)"><a href="https://pixe.la/v1/users/sambarwithegg/graphs/fastest/20230402/retina.svg" target="_blank"><rect data-tippy-content="0 Km on 2023-04-02" class="each-day" rx="2" ry="2" width="10" height="10" x="1" y="0" fill="#eeeeee" data-count="0" data-date="2023-04-02" data-unit="Km" data-retina="false" data-retinaday="20230402" data-index="11" /></a>
      <a href="https://pixe.la/v1/users/sambarwithegg/graphs/fastest/20230403/retina.svg" target="_blank"><rect data-tippy-content="0 Km on 2023-04-03" class="each-day" rx="2" ry="2" width="10" height="10" x="1" y="12" fill="#eeeeee" data-count="0" data-date="2023-04-03" data-unit="Km" data-retina="false" data-retinaday="20230403" data-index="10" /></a>
      <a href="https://pixe.la/v1/users/sambarwithegg/graphs/fastest/20230404/retina.svg" target="_blank"><rect data-tippy-content="0 Km on 2023-04-04" class="each-day" rx="2" ry="2" width="10" height="10" x="1" y="24" fill="#eeeeee" data-count="0" data-date="2023-04-04" data-unit="Km" data-retina="false" data-retinaday="20230404" data-index="9" /></a>
      <a href="https://pixe.la/v1/users/sambarwithegg/graphs/fastest/20230405/retina.svg" target="_blank"><rect data-tippy-content="0 Km on 2023-04-05" class="each-day" rx="2" ry="2" width="10" height="10" x="1" y="36" fill="#eeeeee" data-count="0" data-date="2023-04-05" data-unit="Km" data-retina="false" data-retinaday="20230405" data-index="8" /></a>
      <a href="https://pixe.la/v1/users/sambarwithegg/graphs/fastest/20230406/retina.svg" target="_blank"><rect data-tippy-content="0 Km on 2023-04-06" class="each-day" rx="2" ry="2" width="10" height="10" x="1" y="48" fill="#eeeeee" data-count="0" data-date="2023-04-06" data-unit="Km" data-retina="false" data-retinaday="20230406" data-index="7" /></a>
      <a href="https://pixe.la/v1/users/sambarwithegg/graphs/fastest/20230407/retina.svg" target="_blank"><rect data-tippy-content="0 Km on 2023-04-07" class="each-day" rx="2" ry="2" width="10" height="10" x="1" y="60" fill="#eeeeee" data-count="0" data-date="2023-04-07" data-unit="Km" data-retina="false" data-retinaday="20230407" data-index="6" /></a>
      <a href="https://pixe.la/v1/users/sambarwithegg/graphs/fastest/20230408/retina.svg" target="_blank"><rect data-tippy-content="0 Km on 2023-04-08" class="each-day" rx="2" ry="2" width="10" height="10" x="1" y="72" fill="#eeeeee" data-count="0" data-date="2023-04-08" data-unit="Km" data-retina="false" data-retinaday="20230408" data-index="5" /></a>
        <rect class="weekly-streak" rx="2" ry="2" width="10" height="5" x="1" y="85" fill="#eeeeee" data-week="20230402 - 20230408" data-avg-count="0.00" data-sum-count="0.00" data-unit="Km" data-index="12" /></g>
        
      
      
        <g transform="translate(169, 0)"><a href="https://pixe.la/v1/users/sambarwithegg/graphs/fastest/20230409/retina.svg" target="_blank"><rect data-tippy-content="0 Km on 2023-04-09" class="each-day" rx="2" ry="2" width="10" height="10" x="0" y="0" fill="#eeeeee" data-count="0" data-date="2023-04-09" data-unit="Km" data-retina="false" data-retinaday="20230409" data-index="4" /></a>
      <a href="https://pixe.la/v1/users/sambarwithegg/graphs/fastest/20230410/retina.svg" target="_blank"><rect data-tippy-content="0 Km on 2023-04-10" class="each-day" rx="2" ry="2" width="10" height="10" x="0" y="12" fill="#eeeeee" data-count="0" data-date="2023-04-10" data-unit="Km" data-retina="false" data-retinaday="20230410" data-index="3" /></a>
      <a href="https://pixe.la/v1/users/sambarwithegg/graphs/fastest/20230411/retina.svg" target="_blank"><rect data-tippy-content="0 Km on 2023-04-11" class="each-day" rx="2" ry="2" width="10" height="10" x="0" y="24" fill="#eeeeee" data-count="0" data-date="2023-04-11" data-unit="Km" data-retina="false" data-retinaday="20230411" data-index="2" /></a>
      
            <a href="https://pixe.la/v1/users/sambarwithegg/graphs/fastest/20230412/retina.svg" target="_blank"><rect class="each-day" rx="2" ry="2" width="10" height="10" x="0" y="36" fill="#ead5ff" data-count="100.00" data-date="2023-04-12" data-unit="Km" data-retina="true" data-retinaday="20230412" data-index="1" /></a>
    
      
      <rect class="weekly-streak" rx="2" ry="2" width="10" height="5" x="0" y="85" fill="#ead5ff" data-week="20230409 - 20230412" data-avg-count="25.00" data-sum-count="100.00" data-unit="Km" data-index="13" /></g>
      
    <text x="13" y="-5" class="month">1</text><text x="52" y="-5" class="month">2</text><text x="104" y="-5" class="month">3</text><text x="156" y="-5" class="month">4</text>
        
      
        
      
        
      
        
      
    <g transform="translate(109 , 3)">
      <rect class="day" rx="2" ry="2" width="11" height="11" x="0" y="99" fill="#eeeeee"/>
    </g>
    <g transform="translate(124 , 3)">
      <rect class="day" rx="2" ry="2" width="11" height="11" x="0" y="99" fill="#ead5ff"/>
    </g>
    <g transform="translate(139 , 3)">
      <rect class="day" rx="2" ry="2" width="11" height="11" x="0" y="99" fill="#d5aaff"/>
    </g>
    <g transform="translate(154 , 3)">
      <rect class="day" rx="2" ry="2" width="11" height="11" x="0" y="99" fill="#aa55ff"/>
    </g>
    <g transform="translate(169 , 3)">
      <rect class="day" rx="2" ry="2" width="11" height="11" x="0" y="99" fill="#6a00d5"/>
    </g>

<a href="https://pixe.la/v1/users/sambarwithegg/graphs/fastest.html" target="_blank">
<g>

<rect x="5" y="93" width="23px" height="22px" fill="#000000" fill-opacity="1.0" stroke="none"/>
<svg version="1.0" xmlns="http://www.w3.org/2000/svg" x="5" y="93" width="23px" height="22px" viewBox="0 0 7600 7480" preserveAspectRatio="xMidYMid meet">
<g id="layer101" fill="#ffffff" stroke="none">
 <path d="M4440 6750 l0 -490 912 0 912 0 -49 51 c-28 28 -102 94 -165 148 -362 304 -770 533 -1205 676 -131 44 -360 105 -389 105 -14 0 -16 -53 -16 -490z"/>
 <path d="M2220 6745 l0 -485 485 0 485 0 0 485 0 485 -485 0 -485 0 0 -485z"/>
 <path d="M3330 6745 l0 -485 485 0 485 0 0 485 0 485 -485 0 -485 0 0 -485z"/>
 <path d="M1110 5645 l0 -485 485 0 485 0 0 485 0 485 -485 0 -485 0 0 -485z"/>
 <path d="M2220 5645 l0 -485 485 0 485 0 0 485 0 485 -485 0 -485 0 0 -485z"/>
 <path d="M3330 5645 l0 -485 485 0 485 0 0 485 0 485 -485 0 -485 0 0 -485z"/>
 <path d="M4440 5645 l0 -485 1295 0 1295 0 -25 58 c-45 100 -164 313 -253 447 -99 152 -143 211 -265 358 l-90 107 -978 0 -979 0 0 -485z"/>
 <path d="M0 4535 l0 -485 485 0 485 0 0 485 0 485 -485 0 -485 0 0 -485z"/>
 <path d="M1110 4535 l0 -485 485 0 485 0 0 485 0 485 -485 0 -485 0 0 -485z"/>
 <path d="M2220 4535 l0 -485 485 0 485 0 0 485 0 485 -485 0 -485 0 0 -485z"/>
 <path d="M3330 4535 l0 -485 485 0 485 0 0 485 0 485 -485 0 -485 0 0 -485z"/>
 <path d="M4440 4535 l0 -485 1445 0 1445 0 -6 43 c-41 296 -98 542 -181 782 l-49 140 -1327 3 -1327 2 0 -485z"/>
 <path d="M4420 3902 c0 -4 15 -17 34 -29 80 -51 250 -197 366 -313 222 -222 392 -455 524 -721 164 -329 236 -624 236 -963 0 -313 -54 -541 -191 -814 -88 -174 -174 -295 -319 -445 -189 -197 -382 -339 -615 -452 -143 -70 -205 -93 -370 -136 l-110 -30 71 5 c169 13 453 76 685 152 563 184 1094 507 1527 929 627 610 1002 1356 1087 2159 15 145 20 495 9 592 l-7 52 -171 6 c-262 9 -2756 16 -2756 8z"/>
 <path d="M2462 3859 c-207 -38 -443 -130 -605 -236 -446 -288 -717 -792 -719 -1338 -2 -325 83 -576 252 -745 229 -229 679 -301 970 -155 88 44 202 151 253 236 l37 64 0 631 c0 347 -3 841 -7 1097 l-6 467 -36 -1 c-20 0 -83 -10 -139 -20z"/>
 <path d="M4640 3452 c0 -5 7 -15 14 -22 8 -6 43 -54 76 -106 313 -483 352 -1054 106 -1559 -132 -270 -347 -493 -590 -610 -462 -223 -971 -105 -1450 336 -63 58 -70 62 -80 45 -134 -229 -315 -346 -578 -376 -198 -23 -376 17 -621 138 -13 6 37 -117 91 -223 53 -107 145 -252 206 -325 382 -461 942 -712 1586 -712 280 0 526 42 758 128 873 324 1368 1217 1177 2124 -63 297 -186 561 -391 835 -110 149 -304 357 -304 327z"/>
 <path d="M3823 2626 c-104 -34 -176 -98 -222 -196 -22 -46 -26 -69 -26 -145 0 -78 4 -97 28 -147 37 -76 96 -134 173 -170 53 -25 75 -30 141 -29 162 0 277 79 334 230 27 72 23 192 -9 263 -29 66 -104 143 -170 174 -68 32 -184 41 -249 20z"/>
</g>
</svg>
</g>
</a>

    <text class="legend" x="93" y="113">0</text>
    <text class="legend" x="188" y="112">+</text></g>
</svg>